<svg>
    <symbol id="ytp" width="68" height="48" viewBox="0 0 68 48" fill="none" xmlns="http://www.w3.org/2000/svg">
        <g>
            <path  d="M66.52,7.74c-0.78-2.93-2.49-5.41-5.42-6.19C55.79,.13,34,0,34,0S12.21,.13,6.9,1.55 C3.97,2.33,2.27,4.81,1.48,7.74C0.06,13.05,0,24,0,24s0.06,10.95,1.48,16.26c0.78,2.93,2.49,5.41,5.42,6.19 C12.21,47.87,34,48,34,48s21.79-0.13,27.1-1.55c2.93-0.78,4.64-3.26,5.42-6.19C67.94,34.95,68,24,68,24S67.94,13.05,66.52,7.74z" fill="#f00"></path>
            <path d="M 45,24 27,14 27,34" fill="#fff"></path>
        </g>
    </symbol>
    <symbol id="button-arrow" width="36" height="36" viewBox="0 0 24 24" fill="none" xmlns="http://www.w3.org/2000/svg">
        <g>
            <path d="m20.447 11.105-16-8A1 1 0 0 0 3.152 4.53L7.82 12l-4.668 7.47a1 1 0 0 0 1.3 1.425l16-8a1 1 0 0 0 0-1.79zM6.731 17.517 9.554 13H12a1 1 0 0 0 0-2H9.554L6.731 6.483 17.764 12z" fill="currentColor"/>
        </g>
    </symbol>
    <symbol id="notifications" width="24" height="24" viewBox="0 0 24 24" fill="none" stroke="currentColor" stroke-width="2" stroke-linecap="round" stroke-linejoin="round" xmlns="http://www.w3.org/2000/svg">
        <g>
            <path d="M18 8A6 6 0 0 0 6 8c0 7-3 9-3 9h18s-3-2-3-9" fill="currentColor"></path><path d="M13.73 21a2 2 0 0 1-3.46 0" fill="currentColor"></path>
        </g>
    </symbol>
    <symbol id="qqqq" width="8" height="8" viewBox="0 0 8 8" fill="none" xmlns="http://www.w3.org/2000/svg">
        <g>
            
        </g>
    </symbol>
</svg>



